HIERARCHY
ROOT Hips
{
	OFFSET 0.000000 0.000000 0.000000 
	CHANNELS 6 Xposition Yposition Zposition Yrotation Zrotation Xrotation 
	JOINT Lumbar
	{
		OFFSET 0.000000 0.000000 0.000000 
		CHANNELS 3 Zrotation Xrotation Yrotation
		JOINT Neck
		{
			OFFSET 0.000000 0.445665 0.000000 
			CHANNELS 3 Zrotation Xrotation Yrotation
			End Site
			{
				OFFSET 0.000000 0.227535 0.000000 
			}
		}
		JOINT RightShoulder
		{
			OFFSET 0.019635 0.377685 0.194865 
			CHANNELS 3 Zrotation Xrotation Yrotation
			JOINT RightElbow
			{
				OFFSET 0.000000 -0.243375 0.000000 
				CHANNELS 2 Zrotation Yrotation
				JOINT RightWrist
				{
					OFFSET 0.000000 -0.264825 0.000000 
					CHANNELS 2 Zrotation Xrotation
					End Site
					{
						OFFSET 0.006600 -0.176220 0.000990 
					}
				}
			}
		}
		JOINT LeftShoulder
		{
			OFFSET 0.019635 0.377685 -0.194865 
			CHANNELS 3 Zrotation Xrotation Yrotation
			JOINT LeftElbow
			{
				OFFSET 0.000000 -0.243375 0.000000 
				CHANNELS 2 Zrotation Yrotation
				JOINT LeftWrist
				{
					OFFSET 0.000000 -0.264825 0.000000 
					CHANNELS 2 Zrotation Xrotation
					End Site
					{
						OFFSET 0.006600 -0.176220 -0.000990 
					}
				}
			}
		}
	}
	JOINT RightHip
	{
		OFFSET 0.052140 -0.069960 0.075570 
		CHANNELS 3 Zrotation Xrotation Yrotation
		JOINT RightKnee
		{
			OFFSET 0.000000 -0.402270 0.000000 
			CHANNELS 1 Zrotation
			JOINT RightAnkle
			{
				OFFSET 0.000000 -0.404085 0.000000 
				CHANNELS 3 Zrotation Xrotation Yrotation
				End Site
				{
					OFFSET 0.204105 -0.089430 0.008415 
				}
			}
		}
	}
	JOINT LeftHip
	{
		OFFSET 0.052140 -0.069960 -0.075570 
		CHANNELS 3 Zrotation Xrotation Yrotation
		JOINT LeftKnee
		{
			OFFSET 0.000000 -0.402270 0.000000 
			CHANNELS 1 Zrotation
			JOINT LeftAnkle
			{
				OFFSET 0.000000 -0.404085 0.000000 
				CHANNELS 3 Zrotation Xrotation Yrotation
				End Site
				{
					OFFSET 0.204105 -0.089430 -0.008415 
				}
			}
		}
	}
}
MOTION
Frames: 31
Frame Time: 0.02
-0 0.95578 0 180.68061 0 -2.94092 1.19131 2.10436 -2.46936 -21.11747 4.98239 1.36126 -15.30042 -71.9398 -72.61841 20.43007 78.61287 -16.74498 -3.17089 -9.67538 63.34737 67.73248 21.43851 -77.25722 -25.67075 3.07929 -3.11969 1.50941 6.58686 -6.60061 -2.0381 -3.57853 -6.05441 -1.64625 4.36984 5.46559 -7.2161 5.14676 1.36134 -1.83289
3e-05 0.95578 -0.00027 180.67001 0 -2.94337 1.18832 2.09968 -2.44443 -21.15011 4.92172 1.35452 -15.24356 -71.82374 -72.61795 20.44546 78.59325 -16.73957 -3.17373 -9.67026 63.46666 67.69154 21.43344 -77.19104 -25.68234 3.08731 -3.10545 1.52752 6.61253 -6.62287 -2.029 -3.58178 -6.06157 -1.63791 4.38991 5.5053 -7.23277 5.15784 1.34989 -1.86444
6e-05 0.95578 -0.00054 180.65956 0 -2.9458 1.18536 2.09505 -2.41962 -21.18251 4.86124 1.34778 -15.18735 -71.70813 -72.61788 20.46077 78.57382 -16.73414 -3.17649 -9.66562 63.58566 67.65097 21.42838 -77.12529 -25.69409 3.0954 -3.09128 1.54556 6.63801 -6.64504 -2.01994 -3.58503 -6.06875 -1.62958 4.40987 5.54444 -7.24938 5.16882 1.33858 -1.89555
9e-05 0.95577 -0.00081 180.64958 0 -2.94815 1.18256 2.09051 -2.39501 -21.21436 4.80078 1.34097 -15.13317 -71.59293 -72.61982 20.4757 78.55523 -16.72815 -3.17959 -9.66238 63.70478 67.61133 21.42335 -77.05961 -25.70659 3.10406 -3.07746 1.56344 6.66263 -6.66665 -2.01104 -3.58822 -6.07578 -1.6213 4.42958 5.58152 -7.26572 5.17944 1.32782 -1.92506
0.00011 0.95577 -0.00108 180.63711 0 -2.95089 1.17902 2.08541 -2.36931 -21.24923 4.74003 1.33452 -15.06822 -71.47525 -72.61163 20.49237 78.53248 -16.72461 -3.18164 -9.65118 63.82339 67.56657 21.41822 -76.99238 -25.71511 3.10992 -3.06202 1.58209 6.69138 -6.69073 -2.00139 -3.59167 -6.08323 -1.61287 4.45056 5.62931 -7.28327 5.19192 1.31426 -1.96285
0.00014 0.95577 -0.00135 180.6299 0 -2.95283 1.17699 2.08155 -2.34595 -21.2776 4.68006 1.32734 -15.02614 -71.36317 -72.62455 20.50553 78.51837 -16.71625 -3.1854 -9.65719 63.94285 67.53286 21.41327 -76.92928 -25.73203 3.12157 -3.04986 1.59915 6.71165 -6.70988 -1.99325 -3.59461 -6.09004 -1.60469 4.46888 5.65451 -7.29838 5.20049 1.30658 -1.98321
0.00017 0.95576 -0.00157 180.63759 0 -2.95246 1.17972 2.08089 -2.32837 -21.28881 4.61968 1.31762 -15.04802 -71.26201 -72.70107 20.50732 78.53045 -16.69076 -3.19872 -9.70943 64.06894 67.5284 21.40896 -76.86925 -25.77377 3.15129 -3.04821 1.61161 6.70575 -6.71272 -1.98994 -3.59567 -6.09315 -1.59775 4.47972 5.61485 -7.30579 5.19765 1.31584 -1.95329
0.00021 0.95576 -0.00178 180.65053 0 -2.9513 1.18387 2.08154 -2.31324 -21.29333 4.56048 1.30723 -15.09286 -71.16721 -72.79807 20.50582 78.55098 -16.66098 -3.21305 -9.77931 64.19524 67.53531 21.40487 -76.81457 -25.82377 3.18652 -3.04961 1.62251 6.69174 -6.71103 -1.98806 -3.59627 -6.09593 -1.59097 4.48788 5.55278 -7.31092 5.19095 1.33092 -1.90611
0.00024 0.95575 -0.00199 180.66079 0 -2.95059 1.18703 2.08176 -2.29739 -21.30037 4.50232 1.29746 -15.12671 -71.07233 -72.88228 20.50699 78.56598 -16.63575 -3.22359 -9.84207 64.31885 67.53789 21.40045 -76.76317 -25.86892 3.21787 -3.04862 1.63432 6.68331 -6.71323 -1.98506 -3.59738 -6.10017 -1.58376 4.49737 5.50256 -7.31776 5.18644 1.34287 -1.86818
0.00027 0.95575 -0.00221 180.67221 0 -2.94951 1.19171 2.08131 -2.27992 -21.30954 4.43753 1.28637 -15.16291 -70.96566 -72.98095 20.50341 78.58758 -16.59997 -3.24755 -9.90115 64.45345 67.53708 21.39665 -76.68888 -25.91853 3.25493 -3.05177 1.64535 6.66713 -6.7079 -1.98393 -3.59728 -6.09904 -1.57805 4.50645 5.44539 -7.32181 5.18015 1.3568 -1.82436
0.00031 0.95575 -0.00241 180.68257 0 -2.949 1.19349 2.08254 -2.26634 -21.31278 4.38683 1.27783 -15.19963 -70.88501 -73.05468 20.50865 78.59809 -16.58462 -3.24462 -9.97195 64.56511 67.54586 21.39205 -76.66205 -25.961 3.28154 -3.04717 1.65756 6.66486 -6.7169 -1.97936 -3.59955 -6.10881 -1.56926 4.51569 5.39725 -7.33104 5.17658 1.36805 -1.78865
0.00037 0.95574 -0.00258 180.68776 0 -2.9504 1.18739 2.08816 -2.2634 -21.30038 4.37474 1.27698 -15.23226 -70.87489 -73.05151 20.54168 78.57013 -16.63116 -3.16015 -10.0719 64.61426 67.57995 21.3814 -76.77777 -25.98016 3.2768 -3.01913 1.67406 6.70556 -6.76908 -1.96398 -3.60884 -6.15051 -1.55182 4.52641 5.38081 -7.35592 5.18213 1.37016 -1.78004
0.00045 0.95573 -0.00273 180.69183 0 -2.95237 1.17822 2.09541 -2.2642 -21.28245 4.37679 1.27866 -15.26439 -70.89067 -73.02288 20.58325 78.53165 -16.69761 -3.04986 -10.18274 64.64011 67.62301 21.37062 -76.93889 -25.9921 3.26154 -2.98342 1.69167 6.76013 -6.83534 -1.94528 -3.62047 -6.20285 -1.53131 4.5373 5.37404 -7.38595 5.19042 1.36945 -1.78008
0.00052 0.95573 -0.00289 180.69714 0 -2.95397 1.17016 2.10183 -2.263 -21.26761 4.3724 1.27884 -15.29693 -70.89444 -73.00818 20.6191 78.50191 -16.75202 -2.95607 -10.28803 64.67614 67.66097 21.36242 -77.07054 -26.00843 3.25189 -2.95207 1.70839 6.80656 -6.89356 -1.92871 -3.6308 -6.24915 -1.51225 4.54789 5.36196 -7.41313 5.19702 1.37024 -1.77588
0.00059 0.95572 -0.00305 180.69981 0 -2.95601 1.1634 2.10862 -2.26319 -21.24997 4.36819 1.28033 -15.3303 -70.89949 -72.98517 20.66237 78.45628 -16.81878 -2.84241 -10.3969 64.71412 67.70371 21.34368 -77.23876 -26.02052 3.23904 -2.91715 1.72678 6.86016 -6.95867 -1.90954 -3.64211 -6.30051 -1.49289 4.55939 5.35279 -7.44243 5.20538 1.37027 -1.77249
0.00067 0.95572 -0.00319 180.7073 0 -2.95728 1.1531 2.11507 -2.26127 -21.2371 4.36686 1.27986 -15.36051 -70.90787 -72.97199 20.69256 78.44051 -16.86478 -2.76374 -10.50013 64.7422 67.7384 21.3467 -77.34267 -26.03942 3.23015 -2.88779 1.74187 6.9026 -7.01268 -1.89504 -3.65193 -6.34387 -1.47349 4.56896 5.34038 -7.46849 5.21077 1.37117 -1.76956
0.00077 0.95572 -0.00329 180.73127 0 -2.95634 1.13458 2.11966 -2.25327 -21.23731 4.37091 1.27221 -15.39075 -70.91976 -73.00184 20.6819 78.51522 -16.84721 -2.79012 -10.58982 64.75091 67.7494 21.41141 -77.24792 -26.0806 3.23598 -2.87572 1.7484 6.90751 -7.03391 -1.89377 -3.65732 -6.36234 -1.45415 4.57396 5.3146 -7.48488 5.20737 1.37504 -1.7669
0.00089 0.95573 -0.00336 180.75953 0 -2.9546 1.11243 2.12391 -2.24289 -21.24281 4.37728 1.26275 -15.41605 -70.93401 -73.04048 20.65836 78.61934 -16.80834 -2.85222 -10.67258 64.74981 67.75196 21.49787 -77.08864 -26.12851 3.24597 -2.86947 1.75144 6.90129 -7.04329 -1.89743 -3.66109 -6.37233 -1.43499 4.57686 5.28572 -7.49774 5.20092 1.3799 -1.76424
0.00101 0.95574 -0.00343 180.78397 0 -2.95316 1.09147 2.12867 -2.23314 -21.24686 4.38192 1.25487 -15.43788 -70.94668 -73.06874 20.64241 78.70636 -16.78017 -2.89655 -10.75522 64.75194 67.75758 21.57313 -76.9655 -26.17219 3.25317 -2.86053 1.75557 6.90251 -7.05725 -1.89916 -3.66549 -6.38647 -1.41615 4.58019 5.25971 -7.51185 5.19582 1.38435 -1.76097
0.00112 0.95574 -0.00353 180.81647 0 -2.95195 1.07246 2.13209 -2.22542 -21.24667 4.38961 1.24381 -15.48401 -70.96221 -73.12337 20.6192 78.80864 -16.74841 -2.94638 -10.85165 64.75928 67.76602 21.65327 -76.81546 -26.22061 3.26359 -2.85159 1.76186 6.89451 -7.07504 -1.89943 -3.67048 -6.40014 -1.3955 4.58575 5.22782 -7.52757 5.19088 1.38847 -1.76068
0.00125 0.95575 -0.00357 180.83297 0 -2.95012 1.04843 2.13808 -2.21289 -21.25666 4.39168 1.239 -15.47815 -70.97221 -73.12513 20.60822 78.88644 -16.71879 -2.99366 -10.91809 64.75272 67.76743 21.72923 -76.70521 -26.26081 3.26867 -2.84403 1.76277 6.90243 -7.08192 -1.90398 -3.67373 -6.41211 -1.37868 4.58616 5.20734 -7.53911 5.18494 1.39361 -1.75394
0.00141 0.95576 -0.00347 180.80641 0 -2.94642 1.01266 2.15219 -2.18723 -21.2934 4.37439 1.25106 -15.33134 -70.96431 -72.98189 20.63194 78.88813 -16.70059 -3.02463 -10.89886 64.7187 67.74314 21.78204 -76.72327 -26.27706 3.25594 -2.83987 1.74982 6.96088 -7.06109 -1.91891 -3.67329 -6.42585 -1.3725 4.57286 5.21891 -7.53927 5.17628 1.40076 -1.7305
0.0016 0.95577 -0.00332 180.76327 0 -2.94218 0.97175 2.16867 -2.15691 -21.34032 4.3519 1.26956 -15.1319 -70.95092 -72.78466 20.66888 78.86456 -16.68525 -3.05204 -10.85042 64.66946 67.71361 21.83144 -76.78297 -26.28483 3.23809 -2.83677 1.7315 7.03482 -7.02971 -1.93801 -3.67099 -6.43723 -1.37013 4.55444 5.24205 -7.53545 5.1668 1.40901 -1.70035
0.00178 0.95578 -0.00318 180.72623 0 -2.93846 0.93237 2.1835 -2.12892 -21.38258 4.33388 1.28568 -14.95587 -70.94139 -72.61023 20.7011 78.85335 -16.66816 -3.08158 -10.81835 64.62183 67.69186 21.88611 -76.82151 -26.29615 3.22405 -2.83254 1.71559 7.09926 -7.00343 -1.95538 -3.66909 -6.44686 -1.36594 4.53842 5.26002 -7.53387 5.15815 1.41718 -1.67244
0.00195 0.9558 -0.00306 180.69511 0 -2.9336 0.89621 2.20093 -2.09979 -21.42485 4.30708 1.29963 -14.78264 -70.92659 -72.44346 20.72709 78.83908 -16.65178 -3.1102 -10.77325 64.59663 67.6469 21.92439 -76.86689 -26.3087 3.20406 -2.83114 1.69982 7.17428 -6.97552 -1.97233 -3.66908 -6.46841 -1.36215 4.52212 5.27761 -7.53035 5.14755 1.42366 -1.6478
0.00214 0.95581 -0.0029 180.64802 0 -2.93091 0.85225 2.21328 -2.07215 -21.46983 4.29726 1.31942 -14.5901 -70.92093 -72.24774 20.76979 78.82527 -16.63544 -3.1394 -10.74812 64.52076 67.64928 21.99752 -76.90922 -26.31693 3.195 -2.82415 1.68234 7.23037 -6.94858 -1.99096 -3.66464 -6.4643 -1.3584 4.50507 5.29866 -7.52999 5.14075 1.43386 -1.61493
0.00242 0.95581 -0.00264 180.55784 0 -2.93518 0.78718 2.21302 -2.04833 -21.51638 4.33591 1.35567 -14.36545 -70.94541 -71.98545 20.8526 78.81438 -16.61331 -3.17116 -10.788 64.31258 67.7818 22.15287 -76.92858 -26.31162 3.219 -2.80027 1.66309 7.23669 -6.9274 -2.01407 -3.64896 -6.39335 -1.3542 4.4885 5.32702 -7.53915 5.14542 1.45448 -1.55926
0.00273 0.95582 -0.00233 180.45279 0 -2.94149 0.7146 2.20717 -2.02652 -21.56584 4.39176 1.39722 -14.12129 -70.97817 -71.69553 20.95283 78.8053 -16.59185 -3.20334 -10.84845 64.05312 67.96195 22.34653 -76.94424 -26.3025 3.2538 -2.77092 1.64199 7.2224 -6.90753 -2.03854 -3.62882 -6.29621 -1.34982 4.47107 5.35819 -7.55169 5.15379 1.47877 -1.49578
0.00302 0.95582 -0.00204 180.35642 0 -2.94634 0.64604 2.20263 -2.00472 -21.61626 4.43955 1.43511 -13.88109 -71.00531 -71.41848 21.04641 78.7985 -16.57404 -3.23522 -10.89781 63.81481 68.12227 22.53169 -76.96518 -26.29801 3.28265 -2.7448 1.62073 7.21334 -6.88677 -2.06182 -3.61032 -6.20866 -1.34534 4.45329 5.38789 -7.56279 5.15998 1.50101 -1.43709
0.00333 0.95582 -0.00178 180.25099 0 -2.95347 0.57478 2.20353 -1.97866 -21.65767 4.48821 1.4785 -13.66126 -71.04183 -71.13942 21.13318 78.77866 -16.54105 -3.26786 -10.95375 63.58563 68.27706 22.67725 -76.97366 -26.28263 3.31597 -2.71554 1.60364 7.22183 -6.86683 -2.08771 -3.59325 -6.13017 -1.34191 4.4387 5.41947 -7.57327 5.16832 1.5247 -1.37327
0.00361 0.95583 -0.00145 180.16157 0 -2.95626 0.50738 2.19151 -1.96225 -21.71808 4.53916 1.51159 -13.39315 -71.05871 -70.85718 21.24052 78.78556 -16.53802 -3.29854 -11.00093 63.32473 68.45184 22.91678 -77.00499 -26.28706 3.3423 -2.69155 1.57729 7.18923 -6.8457 -2.10839 -3.57232 -6.02741 -1.33603 4.41704 5.44682 -7.58597 5.17299 1.54647 -1.31797
